<?xml version="1.0" encoding="UTF-8"?> <svg xmlns="http://www.w3.org/2000/svg" viewBox="0 0 1111.02 420.94"> <defs> <style>.cls-1,.cls-2{fill:#fff;}.cls-2{stroke:#fff;stroke-miterlimit:10;stroke-width:1.5px;}</style> </defs> <title>Безымянный-3</title> <g id="Слой_2" data-name="Слой 2"> <path class="cls-1" d="M60.83,282.57c-11.12-13.8-21.42-29.43-28.1-45.86-2.15-5.27-4.31-11.87-4.93-16.82,0-.07-.18-2.11-.2-3,0-.59.15-4.27-.06-2.22a27.8,27.8,0,0,1,.63-3.57c-.64,2.69-.11.77-.09.46s.33-.87.51-1.3q-1.08,2.2-.27.66c.36-.6,1.12-1.42-.45.54A10.43,10.43,0,0,1,29,210.11c1.14-1-1.87,1.61,0,.05.39-.32.77-.65,1.17-1-1.51,1.14,1.66-.86,2.24-1.16,2.37-1.23-1,.23.5-.23.41-.12.81-.25,1.23-.36.66-.18,2.8-.18.59-.19a11,11,0,0,1,1.79,0l1.77.29c1.4.24-1.42-.58-.09,0,.38.15.79.28,1.15.47a31.9,31.9,0,0,1,3.79,2.3c.39.27,2.24,1.9,1,.73.64.59,1.24,1.21,1.84,1.85a64.46,64.46,0,0,1,7.35,9.9c5.56,8.9,9.57,17.78,13.59,27.08,9.79,22.62,18.18,45.86,29.19,67.94,7.73,15.51,18.48,36.24,36.79,40.9,18.54,4.71,35.44-12.23,40.07-28.68,5.38-19.09-1-39.95-8-57.75C155.54,248.74,143,226.47,129.68,205a960.53,960.53,0,0,0-65.85-93.06l-1.25-1.56c-5.93-7.33-18.15,9.53-13,15.86a955.34,955.34,0,0,1,56.74,78.35c14.08,21.53,27.54,43.71,38.36,67.08a208.5,208.5,0,0,1,11.51,30.21c.67,2.36,1.28,4.74,1.81,7.13q.38,1.72.7,3.44c.13.71.69,4.32.46,2.61a66,66,0,0,1,.47,12.28c.15-2.75-.06.34-.17,1s-.31,1.59-.45,2.39c-.47,2.72.48-.89,0,.3a28.62,28.62,0,0,0-1.07,2.86c-.32,1,1.34-2.51-.15.14a9.55,9.55,0,0,0-.51.85c-.71,1.69,1.84-1.89.47-.68a12.69,12.69,0,0,0-1.58,1.89c1.35-1.83.77-.81-.37.22-.38.34-.81.63-1.2,1,.12-.1,1.91-1.21.63-.45-.77.46-1.52.94-2.32,1.36-.5.26-3.25,1.39-1.21.64a27.23,27.23,0,0,1-2.95.93c-.78.19-1.57.33-2.37.45-1.74.27,1.51,0-.24,0-.34,0-.68,0-1,0a24.85,24.85,0,0,1-5.48-.84c1.49.43-.55-.24-1-.45-.8-.36-1.6-.74-2.37-1.16a33.34,33.34,0,0,1-4.84-3.3,22.79,22.79,0,0,1-3.62-3.44c-1.51-1.62-2.93-3.33-4.28-5.09C117,317.51,112,308,107.39,298.48,97.1,277.13,89,254.14,79.22,232.28c-4.26-9.52-8.69-19.13-14.51-27.82-3.88-5.8-9-12.29-15.64-15-9-3.61-18.59.61-25.28,7C13.53,206.42,11,220.28,13.46,233.84c4,22.1,18,43,31.33,60.7,1,1.31,2,2.62,3,3.9,5.92,7.34,18.14-9.52,13-15.86Z"></path> <path class="cls-1" d="M142.75,107.41A966.82,966.82,0,0,0,163.2,208c6.13,23.67,13.17,47.4,23.8,69.5,6,12.44,16.09,31.72,32.16,32.19,17.22.5,28.8-16.45,32-31.51,3.12-14.75.83-31.83-4.83-45.73-4.09-10-17.55,5.21-14.57,12.52,4.16,10.21,6.57,23.25,5.27,33.41a42.2,42.2,0,0,1-.81,4.52c-.06.25-.56,1.82-.1.38-.2.61-.41,1.23-.66,1.83-1.15,2.85.41-1.23-.2.5-.16.45-1.21,2.44-.14.47a7.71,7.71,0,0,1-1.15,1.45c1.43-1.39-.73.63-.87.72.83-.56-1.78,1-2.13,1.18a32.35,32.35,0,0,1-3.48,1c-1.65.47.73.09-.27.08a21.5,21.5,0,0,1-2.29-.09c-.63-.07-1.23-.21-1.85-.34s1,.52-.6-.22a26.13,26.13,0,0,1-3.8-2c-3.26-2.17-3.66-2.72-6.46-6.1-5.2-6.29-9.7-14.61-12.78-21.27-9.59-20.68-16-42.93-21.67-64.94-5.6-21.63-10.29-43.5-14.42-65.45-2.2-11.69-4.3-23.41-6-35.18-.74-5-6.82-3.19-9.35-1a15,15,0,0,0-5.23,13.57Z"></path> <path class="cls-1" d="M205.48,82.15a945.14,945.14,0,0,0,14.66,116.13c4.56,23.69,9.82,48.56,21.31,70C245,275,250,282.47,257.13,285.74c10.73,4.92,22.63-.13,29.57-8.92,10.08-12.77,11.45-30.6,11.18-46.24-.21-12.24-1.88-24.31-3.38-36.43-1.54-12.39-16.14.32-15.14,8.41,1.2,9.7,2.56,19.36,3.11,29.14a148.93,148.93,0,0,1,0,19,64.83,64.83,0,0,1-3,14.18c-.61,1.79,0-.09.23-.41-.3.54-.62,1.09-.91,1.64-.56,1.07-1.41,1.08.17-.2-.16.13-.63,1-.89,1.09,1.64-.54.85-.53-.17.07-.37.21-1.48.9.26-.15a8,8,0,0,1-1.19.68c-1.39.51.94-.12-1,.35a14.73,14.73,0,0,1-6,.28c-.53,0-2.68-.72-.77-.06a17.16,17.16,0,0,1-2-.81,22.21,22.21,0,0,1-3.59-2.34c-1.46-1.11-.12,0-.74-.64s-1.45-1.52-2.12-2.33a56.9,56.9,0,0,1-6.47-9.93c-4.23-8-7.8-18.45-10.64-28.22-3.47-11.91-6.2-24-8.58-36.2-4.79-24.43-8-48.25-10.72-72.86-1.49-13.67-2.84-27.38-3.75-41.11-.29-4.41-3.67-6.64-7.72-4.45s-7.74,8.06-7.42,12.86Z"></path> <path class="cls-1" d="M279.05,182.19c-.41,20.29,1.07,42.09,7.37,61.45,3.38,10.38,9.3,22.89,21.24,25.08,17.29,3.16,27.6-14.23,31.29-28.42,3.28-12.59,3.84-26.38,2.94-39.35-.31-4.41-3.66-6.64-7.72-4.45s-7.76,8.07-7.42,12.86a124,124,0,0,1-.92,27c-.26,1.64-.55,3.27-.91,4.89-.14.64-.29,1.27-.45,1.9-.76,3,.64-1.72-.35,1.16-.27.78-2,4.72-.81,2.44a8.35,8.35,0,0,0-.8,1.48q-1,1.55.27-.28-.34.47-.72.91c-.75-.21,1.57-.72,0,0-2.09.95,1.13-.55-.17.06s1.84-.53-.43.17c-.58.18-1.16.31-1.74.46a12,12,0,0,1-1.68.3c1.22-.13.14,0-.1,0a15.57,15.57,0,0,1-3.61-.4,4,4,0,0,1-1.65-.71,26.44,26.44,0,0,1-2.5-1.6c-1.34-1-.31-.07-1.46-1.38a31,31,0,0,1-2.44-3.15c-3-4.44-4.39-8.35-6-13.82-3.39-11.52-4.58-21.74-5.41-33.51-.5-7.12-.8-14.29-.66-21.43.09-4.54-3.92-6.5-7.72-4.45-4.44,2.4-7.32,7.92-7.42,12.86Z"></path> <path class="cls-1" d="M324.85,161.09c-1.4,8.26-1.17,17-.74,25.33,1.25,24,6.14,47.8,12.51,70.91,1.3,4.72,6.48,3.48,9.35,1,3.55-3,6.54-8.81,5.23-13.57-6-21.81-10.77-44.15-11.95-66.79a154.8,154.8,0,0,1-.06-16.75c0-.88.13-1.76.18-2.64-.2,3.28-.09,1,0,.17.06-.48.11-1,.19-1.44.66-3.88-.81-8.56-5.58-7.57s-8.4,6.93-9.14,11.31Z"></path> <path class="cls-1" d="M341.9,200.95c-.15-2.08-.16-4.17-.12-6.25s.13-4.1.29-6.14c-.16,2,.23-1.91.29-2.39.19-1.38.41-2.76.68-4.13s.53-2.51.85-3.76c.42-1.62-.77,2.19.14-.4.19-.54.36-1.08.56-1.62s.42-1.05.62-1.59c.95-2.55-.76,1.33,0-.14.33-.61.66-1.21,1-1.81,1.11-2-1.24,1.52.26-.37.33-.42.68-.83,1-1.22-1.52,1.64-.26.19.22-.06,1.33-.71-1.76,1.12.36-.26a10.67,10.67,0,0,1,1.43-.76c-.76.34,1.88-.52,2.5-.62a14.52,14.52,0,0,1,3.73-.09c.94.09-1.28-.56.2.13a3.23,3.23,0,0,1,.88.6c.67.7-1.13-1.25-.07-.05a22,22,0,0,1,3,4.52,9.41,9.41,0,0,1,.8,1.81q.72,1.8,1.33,3.63c.88,2.59,1.62,5.23,2.29,7.88a265.43,265.43,0,0,1,6,34.64c.88,7.52,1.63,15.07,2.13,22.63l15.14-8.41A295.94,295.94,0,0,1,385.7,193a125.76,125.76,0,0,1,1.18-14.66c.34-2.4.74-4.79,1.26-7.15.24-1.12.51-2.23.8-3.33-.57,2.12.41-1.19.61-1.75.34-.95.75-1.86,1.12-2.8.52-1.36-1,1.78-.27.6a8.51,8.51,0,0,1,.67-1.19c1.8-1.93-1.33,1.64.25-.34.34-.43.74-1.42.12-.19-.94,1.84.39-.44.4-.25,0,1.22-1.65.34.47-.12-2.2.47.42,0,.91-.07a9.26,9.26,0,0,1,4.42.21c-1.32-.34.51.23.89.47a17.26,17.26,0,0,1,1.77,1.2c-1-.8.14.15.47.59.52.71,1,1.4,1.49,2.14.22.34.4.71.59,1.07-.6-1.15-.08-.19,0,.06.35.82.65,1.67.93,2.52a50.55,50.55,0,0,1,1.58,6.43c1.42,7.61,1.65,18.11,2.13,27.16.71,13.34,1.15,40.79,21.59,36,13.33-3.15,21-17.73,24.58-29.77A105.37,105.37,0,0,0,458,184.62c.21-4.57-4-6.46-7.72-4.45-4.53,2.44-7.2,7.89-7.42,12.86,0,.48-.06.95-.09,1.42-.11,2,.22-1.79,0-.18-.12,1-.21,1.95-.33,2.92A91.55,91.55,0,0,1,440,209.75c.49-1.79-.41,1.25-.61,1.84-.39,1.15-.84,2.27-1.29,3.4-.75,1.89-.1.3.09-.07-.26.53-.52,1.06-.82,1.57s-.58,1-.88,1.51c-1.43,2.4,1.37-1.63-.36.48-.35.43-.7.86-1.08,1.26.31-.32,1.44-1.21,0-.17-.27.2-1.35,1.1,0,.06a6.15,6.15,0,0,1-1.38.77c1.26-.42-1.6.42-1.88.46a9,9,0,0,1-2.32,0c-1.44-.11.67.55-.54-.12a14.51,14.51,0,0,1-1.5-.94c.37.26.36.57-.35-.51-.42-.65-.84-1.26-1.21-1.94.84,1.52-.2-.5-.34-.92-.26-.79-.52-1.57-.73-2.37a50.9,50.9,0,0,1-1.17-5.8c-.19-1.27.14,1.11,0-.19q-.1-.78-.18-1.55c-.11-1.07-.22-2.14-.31-3.21-.2-2.4-.35-4.8-.48-7.2-.28-5-.46-10-.79-15.06-.93-14.36-2.71-40.62-23.08-38.41-22.22,2.41-26.44,33-27.8,50.42a274.79,274.79,0,0,0,1.26,52.11c.49,4.33,3.53,6.71,7.72,4.45s7.74-8.06,7.42-12.86c-1.38-21.2-3.64-43-9.22-63.57-2.27-8.34-5.95-22.56-16.59-23.1-15.89-.81-26.88,13.7-31.17,27.41a87.6,87.6,0,0,0-3.69,31.9c.31,4.41,3.65,6.65,7.72,4.45s7.77-8.07,7.42-12.86Z"></path> <path class="cls-1" d="M499.92,135.07c-10.63-14.51-32.17-10.61-42.82,1.6-11.52,13.19-14.53,32.81-14.22,49.73.25,14,2.35,33.31,13.77,43.1,14.39,12.34,30.49-6.15,36-18.54s7.68-27.18,7.91-40.83c.08-4.53-3.92-6.51-7.72-4.45-4.57,2.47-7.14,7.87-7.42,12.86-.93,16,.62,50.32,22.58,51.52,12.74.7,21.1-11.42,25.44-21.84,4.62-11.12,6.06-23.49,7-35.39a194.57,194.57,0,0,0,.52-22.09c-.17-4.46-3.75-6.6-7.72-4.45-4.23,2.28-7.61,8-7.42,12.86.58,15-.16,27.32-3.57,41.64-.13.56-.28,1.12-.44,1.67.52-1.88.12-.43,0-.05-.35,1-.68,2.08-1.06,3.1s-.78,1.94-1.2,2.9c1.2-2.74-.5.64-.88,1.35-.87,1.67,1-2.08-.41.42-.74,1.33-.29-.92.48-.47-.14-.08-.78,1-.94.81.27.26,1.55-1.58.42-.32a4.27,4.27,0,0,1-1.05.55c1.79-.66-.59.07-1.22.16-1.06.15,1.07,0,0,0a8.62,8.62,0,0,1-1.31-.07,16.15,16.15,0,0,1-2-.36,10.52,10.52,0,0,1-4.76-3.39c-3.17-3.77-4.55-8.58-5.6-13.35a88.47,88.47,0,0,1-1.61-23.56l-15.14,8.41c0,.67,0,1.35-.07,2s-.08,1.55-.13,2.33c0,.58-.08,1.16-.13,1.74-.13,1.84.2-1.82,0,.33a121.14,121.14,0,0,1-3,17.27c-.44,1.73.71-2.19-.18.65-.23.74-.47,1.47-.72,2.2q-.75,2.15-1.66,4.24c-.7,1.61,1.25-2.17-.15.25l-1.07,1.86c-.87,1.5,1.38-2.17-.06.09-.25.39-2,2.16-.31.52a16.13,16.13,0,0,1-1.75,1.49c.37-.26,1.42-.77,0-.14-2.15,1,1.45-.28-.86.35a11.66,11.66,0,0,1-1.5.34,6.38,6.38,0,0,1-4.29-1c-2-1.29-2.05-1.32-3.69-3.58a25.48,25.48,0,0,1-3.29-6.06,66.44,66.44,0,0,1-4.06-17.38,94.19,94.19,0,0,1,.07-19.94,81.9,81.9,0,0,1,1.7-9c.43-1.73-.71,2.15.17-.63.23-.71.46-1.43.71-2.13s2.19-5,1-2.6c.46-.9,3.16-4.65,1.3-2.42.4-.48.74-1,1.17-1.45s.31-.38-.56.53q.51-.5,1.05-1c1.34-1,0-.07-.25.09a15.37,15.37,0,0,1,2.39-1.32,18.57,18.57,0,0,1,6-1.4,16.93,16.93,0,0,1,13.65,6.13c5.5,7.5,17.87-9.25,13-15.86Z"></path> <path class="cls-1" d="M558.29,18.42c-10.88,25.26-19,52.12-25,78.92-4.8,21.44-8.09,43.63-7.42,65.65.58,18.78,3.93,41.75,16.71,56.56,7.07,8.19,17.51,6.3,26.4,2.44,11.6-5,21.83-13.66,31.2-22,10.92-9.72,21.51-20,31.66-30.55,8.37-8.67,19.19-22,14-35-3.63-9.05-13.86-14.52-23.3-14.61-9.23-.1-18.27,3.26-25.83,8.41-19.3,13.14-30.39,37-24.64,60.15,5.13,20.63,23.56,45,47.35,37,16.24-5.46,29.34-19.42,39.06-33.06,1.13-1.59,2.26-3.18,3.31-4.82,2-3.12,3.76-9.83-.21-12.24-4.17-2.53-8.85,3.06-10.71,5.94-1.71,2.66,1.16-1.49-.13.21-1.59,2.1-3.12,4.23-4.78,6.27q-1.5,1.85-3.08,3.63c-.53.6-3.63,3.89-2.38,2.63a76.08,76.08,0,0,1-9.17,8c-4.3,3.14-11,6.54-17.82,5.7-9.7-1.2-16.28-10.29-21-18-4.88-8-8.09-18-6.54-26.9a25.23,25.23,0,0,1,3-8.45c.1-.17,1.89-2.95.58-1.06.57-.82,1.18-1.6,1.81-2.37a17.81,17.81,0,0,1,3.67-3.76,32.48,32.48,0,0,1,18.3-8.09c6.05-.54,13.87,1.65,17.58,7.72a12.63,12.63,0,0,1,1,2.34c-.34-1.08-.62.93,0-.12.18-.29-1.88,2.87-1.11,1.79-3.81,5.34-9,9.81-13.64,14.35-8.52,8.25-16.89,16.65-26,24.31-7,5.94-14.83,12.47-23.65,15.52-7.88,2.73-11.63.06-15.79-6.81C543.17,184,541,166.52,540.89,150.12c-.08-18.85,2.85-37.55,6.95-56a416.09,416.09,0,0,1,23.76-74.5c1.47-3.4,1.6-9.46-3-10.23-4.81-.79-8.75,5.45-10.27,9Z"></path> <ellipse class="cls-2" cx="286.81" cy="103.55" rx="11.42" ry="8" transform="translate(122 360.11) rotate(-77.14)"></ellipse> <path class="cls-1" d="M718.18,58.22c-5.22,9.53-9.25,19.88-12.86,30.11A362.07,362.07,0,0,0,687.44,166a414.06,414.06,0,0,0-2.69,61.91c.15,4.79,4,7.05,8.27,4.77a16.48,16.48,0,0,0,8-13.78,375.74,375.74,0,0,1,8.81-95.1,281.65,281.65,0,0,1,17.09-52.59c.53-1.2,1.1-2.38,1.63-3.59s-1.51,3.07-.36.77l.56-1.15c.38-.76.76-1.53,1.17-2.28,1.92-3.5,4.2-10.44-.22-13.12s-9.7,3.14-11.47,6.37Z"></path> <path class="cls-1" d="M832,157.19l-18.88,72.62-2.69,10.36,14.72-3.74c.06-.25.13-1.07.31-1.2s.3-1.08.34-1.27c.34-1.37-.77,2.58,0,0,1.19-4,2.45-7.93,3.86-11.84q2.85-7.92,6.37-15.58c-1,2.16.69-1.39,1-2q.94-1.86,1.94-3.69c1.63-3,3.38-5.92,5.28-8.75-1.23,1.83.61-.84,1.07-1.43.9-1.2,1.84-2.38,2.82-3.52.35-.41,3.25-3.45,1.79-2C851,184,852.19,183,853.4,182c.54-.44,1.09-.87,1.65-1.29-1.28.93-.14.1.12-.06,1.15-.72,2.32-1.38,3.52-2a19.08,19.08,0,0,1,6.39-1.85c3.46-.47,9.38,0,13,2.53,1.33.93-.71-.7,0,0a3.59,3.59,0,0,1,.71.94c.51,1.11,0-.27-.12-.42a4.5,4.5,0,0,1,.45,1.38c.11.5.13,1.34,0-.56a9.33,9.33,0,0,1,.07,1.34c-.17,2.71.49-.92-.15,1.48-.18.67-1.09,4.15-.25,1.42q-.48,1.58-1.05,3.14c-1,2.67-2.13,5.28-3.33,7.86,1.05-2.26-.57,1.14-.91,1.81q-.91,1.82-1.85,3.62c-1.55,3-3.14,6-4.72,9-5.32,10.12-11.51,20.86-13.3,32.32-1.41,9,1.81,19.95,12.81,19.63,11.63-.34,21.59-10.79,29-18.66,15.47-16.48,28.3-36.11,39.54-55.68,1.78-3.1,3.63-8.83.43-11.66-3-2.69-7.83.29-9.75,3.06-6.93,10-13.43,20.33-19.36,31a203.72,203.72,0,0,0-12.68,26.35c-2.78,7.28-5.44,15.55-4.72,23.45a16.15,16.15,0,0,0,11.85,14.61c6.78,2.13,13.82.08,19.91-3.16,15.19-8.07,26.94-23,36.84-36.65a307.11,307.11,0,0,0,20.34-31.59L966.86,197l-38.58,74.69c-1.71,3.31-4,9.71.21,12.24s8.76-3.11,10.71-5.94c-2.08,3-1.31,1.88-.06.12s2.7-3.73,4.07-5.58q6.56-8.78,13.68-17.14c10.18-11.9,21.12-24.47,35.49-30.74,1.22-.53-1,.36.23-.09.35-.13.71-.27,1.07-.38.7-.21,1.39-.44,2.1-.61a9.09,9.09,0,0,1,3.56-.51c3.46.14,4.4.47,7.41,2.54,3.21,2.21,6.24,5.62,6.25,8.78,0,.34.1.11-.23,1.38-.08.33.08.08-.54,1.41-.51,1.09,0,.22.05,0-.33.71-.73,1.4-1.11,2.08-.72,1.29-1.5,2.55-2.32,3.77-7.86,11.72-18.46,22.27-26.92,33.84-5.77,7.89-9,18.12-4.17,27.29,4.2,8.05,13.3,11.39,22,10.39,14.34-1.66,25.86-13.53,33.63-24.78,2.34-3.39,5.71-9.39,2.65-13.39-2.84-3.71-8.37-.44-10.38,2.48-5.35,7.75-13.09,17.35-23.63,16.68a13.44,13.44,0,0,1-8.81-3.64,27.41,27.41,0,0,1-2.08-3c.31.59-.9-3.4-.58-1.86a7.59,7.59,0,0,0,0-1.39s0,1.7,0,.59c0,.23-.13.34-.28.64-.66,1.36,0,.15.11-.09-.95,2.36-.06.13.5-.56,1.39-1.74,2.74-3.51,4.13-5.25,4.91-6.14,10-12.12,14.93-18.25,7.57-9.44,16.16-20.23,17.92-32.6a23,23,0,0,0-13.42-24.42c-6.57-3.07-13.78-1.88-20.26.76-16.62,6.77-30.1,21.13-41.76,34.31a317.76,317.76,0,0,0-24.08,30.9l10.91,6.3,38.58-74.69c1.71-3.31,4-9.71-.21-12.24-4-2.44-9,2.94-10.71,5.94-4.06,7.37-8.6,14.51-13.31,21.49l-1.23,1.82c1.47-2.15-.26.36-.47.66-1.08,1.52-2.16,3-3.26,4.53-2.46,3.35-5,6.64-7.65,9.84-2.43,2.93-4.93,5.82-7.59,8.55,1.46-1.51-.67.65-.8.77-.65.62-1.3,1.25-2,1.87-1.49,1.38-3,2.71-4.62,4a27.14,27.14,0,0,1-6,3.89c-.64.33-1.29.65-2,.94,1.64-.71-.41.14-.66.21l-1.91.54c-.3.08-2.86.4-1.3.3-2.81.19-4.48-.16-6.09-1.08a15.24,15.24,0,0,1-3.3-2.26c.95.95-.11-.26-.22-.41-1.2-1.56.19.53-.33-.57a4.37,4.37,0,0,1-.34-1.3c-.12-1.18.05,2,0,.05,0-.63,0-1.25,0-1.88,0-2.21-.33,1.92,0-.38.23-1.5.53-3,.87-4.46.61-2.64-.65,2,.19-.71q.52-1.68,1.11-3.34c1.28-3.61,2.78-7.13,4.38-10.61a5.88,5.88,0,0,1,.53-1.11q.67-1.37,1.36-2.73,1.62-3.19,3.33-6.33c3.94-7.25,8.19-14.34,12.62-21.3q2.28-3.58,4.64-7.12c.76-1.13,3.67-5.35.38-.6l-9.32-8.6c-3.18,5.54-6.58,11-10,16.31q-2.43,3.75-4.93,7.45L908,206.92a9.18,9.18,0,0,1-.61.88q-1.43,2-2.87,4c-4,5.56-8.19,11-12.67,16.19a72.32,72.32,0,0,1-11.52,11.32c-.5.4-1,.79-1.53,1.16,1.49-1.07.43-.3.1-.1-1,.6-2,1.15-2.95,1.7-.07,0-2,.84-.75.37s-.61.18-.71.2c-.35.07-.73.18-1.08.27-1.51.4-.44.09-.52.08a12.1,12.1,0,0,1-2.21-.27c1.62.41-.63-.45-1.12-.75-1.42-.85.09.49-.76-.82a6,6,0,0,1-.48-.78c.89,2,0,.08,0-.31s-.06-2.05,0,.33a8.12,8.12,0,0,0,0-1.06c-.22-.19.37-3-.07.07a11.81,11.81,0,0,1,.18-1.2c.15-.58,1.07-4.15.22-1.35q.58-1.92,1.29-3.8c.9-2.4,1.94-4.75,3-7.07-1.14,2.44.84-1.68,1.09-2.18.74-1.48,1.5-3,2.27-4.43,2.82-5.41,5.74-10.77,8.45-16.25,4.89-9.87,11.69-22.6,9-34C891.15,158,877.42,156.3,867.86,158c-12.49,2.25-22.91,11.93-30.28,21.72-13.21,17.56-21.95,39.14-27.17,60.43-1,3.89,1,8.52,5.58,7.57,5-1,8-6.91,9.14-11.31L844,163.81l2.69-10.36c1-3.89-1.05-8.51-5.58-7.57-5,1-8,6.91-9.14,11.31Z"></path> <path class="cls-1" d="M1088.12,239.58c-7.37-5.13-16.13-8.14-25-5.32-9.28,3-16.66,10.44-22.3,18.1-13.69,18.6-29.49,46.19-20.55,69.93,2.59,6.87,8,14.74,16,15.7,5.55.67,11.13-1.94,15.64-4.92,12.35-8.15,22-20.33,30.69-32.15,6.35-8.67,12.45-17.63,17.93-26.89,1.89-3.2,3.85-9.78-.21-12.24s-8.91,3-10.71,5.94c-6,9.73-12.28,19.25-18.7,28.68l-2,2.87-1.12,1.63.22-.32c-1.76,2.52-3.51,5-5.29,7.56q-5,7.12-10.24,14.14c-7.41,10-15.06,19.78-23.09,29.26-4,4.7-8.07,9.33-12.29,13.83q-1.53,1.63-3.08,3.24c1.4-1.44-1.53,1.53-1.89,1.89q-3,3-6.12,5.85a154.67,154.67,0,0,1-12,9.92c-2.11,1.57.59-.3-1.56,1.09-.85.55-1.7,1.11-2.57,1.64-1.9,1.16-3.84,2.18-5.83,3.17-.36.18-.72.33-1.08.49-1.81.84,1.63-.56-.21.09-.78.28-1.56.56-2.35.8s-1.52.43-2.3.6c-.53.11-3.68.48-1.62.35a20.08,20.08,0,0,1-4.21-.13,17.77,17.77,0,0,1-2.21-.48c1.78.5-.81-.41-1.3-.67a17.26,17.26,0,0,1-3.49-2.43c1.3,1.16-.62-.76-.87-1.06a26.68,26.68,0,0,1-2.13-3,16.7,16.7,0,0,1-2.51-6.45c.29,1.86.27-3.45-.07-.63a8.15,8.15,0,0,1,.22-1.38c.61-1.91-.38,2,.2-.51.31-1.34-1.43,2.16-.15.29.4-.59.74-1.25,1.12-1.86-2,3.24,1.89-2,.84-.87s.73-.69.78-.73c.6-.54,1.2-1.08,1.83-1.6s1.07-.86,1.62-1.28c1.67-1.3-.19.05,1.18-.86a99.44,99.44,0,0,1,16.86-8.81c1.18-.49,4.56-1.78,7-2.62s4.55-1.54,6.85-2.23,4.53-1.35,6.82-1.9c4.8-1.15,8.31-6.74,9.14-11.31.69-3.79-.77-8.73-5.58-7.57-19.26,4.63-41.07,13-54.33,28.22-9.67,11.13-12.75,26.61-4,39.18,4.6,6.6,11.63,10.38,19.7,9.83C979.92,413,989,407.52,997,401.74c10-7.17,18.79-15.87,27.21-24.79,18-19.1,33.9-40.23,48.94-61.71,9.45-13.49,18.73-27.16,27.34-41.2l-10.91-6.3c-3.2,5.4-6.66,10.65-10.18,15.85-.32.47-1.47,2.12-.18.26l-1.05,1.51c-.73,1-1.46,2.06-2.2,3.09q-2.9,4-5.94,7.92-2.79,3.57-5.73,7-1.29,1.5-2.62,3c-.54.6-1.1,1.2-1.65,1.79l-1,1q.88-.91.15-.16c-1.91,1.89-3.87,3.72-5.95,5.41-.43.35-3.2,2.35-1.65,1.32-1,.69-2.1,1.28-3.16,1.9a6.46,6.46,0,0,1-7.32.08c-6-3.72-8-11.38-8-18,0-10.23,5.1-19.32,10.08-27.93,3.87-6.7,8.63-14.76,15.08-18s13.66,0,19.38,4c6.87,4.78,17.71-13.16,10.5-18.19Z"></path> <ellipse class="cls-2" cx="962.81" cy="117.84" rx="11.8" ry="10.51" transform="translate(141.05 633.21) rotate(-39.07)"></ellipse> <path class="cls-1" d="M735.22,142.39a242.68,242.68,0,0,0-9.37,29.86c-3.87,15.34-7.72,33.8-2.67,49.31,2.07,6.37,6.08,12.22,12.49,14.75,7.31,2.89,13.57,1,19.62-3.67,13.21-10.3,21.51-27.56,28.61-42.32,5.89-12.23,11.38-24.71,16.07-37.45,1.27-3.45,1.74-9.44-3-10.23s-8.83,5.43-10.27,9c-7.37,18.17-13.72,37.52-16.66,56.92-1.49,9.85-3.43,24,3.46,32.5,9.65,11.84,27.24,1.53,35.5-6.54,16.53-16.12,27-38.55,32.6-60.71,1-3.89-1-8.52-5.58-7.57-5,1-8,6.91-9.14,11.31-3.72,14.78-10.76,30.14-21.16,41.43-3.29,3.58-7.56,7.42-12.65,8-4.23.49-5.84-.65-7.49-3.12-.88-1.31-.18-.11-.46-.94s-.51-1.6-.7-2.42c-.1-.44-.18-.87-.26-1.31-.4-2.16.08,1,0-.39-.1-1.13-.16-2.26-.18-3.4s0-2.44.06-3.65c0-.56.06-1.13.1-1.69.1-1.46-.13,1.22,0-.28.29-2.91.74-5.81,1.26-8.69a196.79,196.79,0,0,1,8-30.09c2-6.1,4.18-12.17,6.59-18.13l-13.31-1.24c-3.16,8.61-6.73,17.09-10.47,25.45-1.91,4.26-2.91,6.39-4.31,9.24-1.81,3.69-3.7,7.35-5.68,11s-3.9,6.87-6,10.18c-.51.78-1,1.56-1.54,2.33,1.22-1.77.3-.45,0-.09-1.17,1.58-2.35,3.16-3.63,4.65-.51.59-1,1.17-1.55,1.74,1.74-1.89.12-.13-.26.2l-1.53,1.33c-1.62,1.42,1.68-.89-.11.11-.49.27-3.16,1.86-1,.67a3.69,3.69,0,0,1-1.45.37c2.1.27-.16-.05-.52-.13-4.86-1-8.54-3.88-10.18-7.89-2.51-6.14-2.38-11.18-2-18.2.11-2.18.52-5.46,1.06-8.84.65-4.05,1.47-8.08,2.42-12.07q.73-3.1,1.56-6.18l.46-1.7q.47-1.68,0,0l.47-1.6c1-3.29,2-6.56,3.1-9.81,1-2.93,2-5.85,3.15-8.73,1.36-3.43,1.68-9.45-3-10.23s-8.86,5.43-10.27,9Z"></path> <path class="cls-1" d="M670.68,64.76A908,908,0,0,1,900.9,104.82c4.43,1.37,9.06-5.73,10.27-9,1.48-4,1.56-8.8-3-10.23A908,908,0,0,0,677.91,45.55c-8.17-.34-16.35,18.83-7.22,19.21Z"></path> <path class="cls-1" d="M405.54,79.42a893,893,0,0,1,181-17.53c8.18,0,16.23-19.16,7.22-19.21A911.77,911.77,0,0,0,409.1,60.53c-7.69,1.54-14.11,21-3.56,18.88Z"></path> <path class="cls-1" d="M191.52,153.75c19.39-11.3,40.34-20.27,61.06-28.75,7.52-3.08,11.28-22.05-.29-17.31-20.72,8.48-41.67,17.45-61.06,28.75-4.27,2.49-7.57,7.85-7.42,12.86.13,4.41,3.74,6.77,7.72,4.45Z"></path> </g> </svg> 